<svg width="36" height="36" viewBox="0 0 36 36" fill="none" xmlns="http://www.w3.org/2000/svg">
<g clip-path="url(#clip0_15_80)">
<path fill-rule="evenodd" clip-rule="evenodd" d="M18 0C8.05909 0 0 8.05909 0 18C0 27.9409 8.05909 36 18 36C27.9409 36 36 27.9409 36 18C36 8.05909 27.9409 0 18 0ZM17.1818 8.18182C16.7478 8.18182 16.3316 8.35422 16.0247 8.6611C15.7179 8.96798 15.5455 9.38419 15.5455 9.81818C15.5455 10.2522 15.7179 10.6684 16.0247 10.9753C16.3316 11.2821 16.7478 11.4545 17.1818 11.4545H18C18.434 11.4545 18.8502 11.2821 19.1571 10.9753C19.464 10.6684 19.6364 10.2522 19.6364 9.81818C19.6364 9.38419 19.464 8.96798 19.1571 8.6611C18.8502 8.35422 18.434 8.18182 18 8.18182H17.1818ZM14.7273 14.7273C14.2933 14.7273 13.8771 14.8997 13.5702 15.2066C13.2633 15.5134 13.0909 15.9296 13.0909 16.3636C13.0909 16.7976 13.2633 17.2138 13.5702 17.5207C13.8771 17.8276 14.2933 18 14.7273 18H16.3636V22.9091H14.7273C14.2933 22.9091 13.8771 23.0815 13.5702 23.3884C13.2633 23.6952 13.0909 24.1115 13.0909 24.5455C13.0909 24.9794 13.2633 25.3957 13.5702 25.7025C13.8771 26.0094 14.2933 26.1818 14.7273 26.1818H21.2727C21.7067 26.1818 22.1229 26.0094 22.4298 25.7025C22.7367 25.3957 22.9091 24.9794 22.9091 24.5455C22.9091 24.1115 22.7367 23.6952 22.4298 23.3884C22.1229 23.0815 21.7067 22.9091 21.2727 22.9091H19.6364V16.3636C19.6364 15.9296 19.464 15.5134 19.1571 15.2066C18.8502 14.8997 18.434 14.7273 18 14.7273H14.7273Z" fill="#F6E8EA"/>
</g>
<defs>
<clipPath id="clip0_15_80">
<rect width="36" height="36" fill="white"/>
</clipPath>
</defs>
</svg>
