<svg width="85" height="24" viewBox="0 0 85 24" fill="none" xmlns="http://www.w3.org/2000/svg">
<path d="M5.09375 5.07812V14.0469H9.57812C10.1927 14.0469 10.7708 13.9323 11.3125 13.7031C11.8542 13.4635 12.3281 13.1406 12.7344 12.7344C13.1406 12.3281 13.4583 11.8542 13.6875 11.3125C13.9271 10.7604 14.0469 10.1771 14.0469 9.5625C14.0469 8.94792 13.9271 8.36979 13.6875 7.82812C13.4583 7.27604 13.1406 6.79688 12.7344 6.39062C12.3281 5.98438 11.8542 5.66667 11.3125 5.4375C10.7708 5.19792 10.1927 5.07812 9.57812 5.07812H5.09375ZM5.09375 23H0.609375V0.59375H9.57812C10.401 0.59375 11.1927 0.703125 11.9531 0.921875C12.7135 1.13021 13.4219 1.43229 14.0781 1.82812C14.7448 2.21354 15.349 2.68229 15.8906 3.23438C16.4427 3.77604 16.9115 4.38021 17.2969 5.04688C17.6927 5.71354 17.9948 6.42708 18.2031 7.1875C18.4219 7.94792 18.5312 8.73958 18.5312 9.5625C18.5312 10.7917 18.2969 11.9531 17.8281 13.0469C17.3594 14.1302 16.7188 15.0781 15.9062 15.8906C15.0938 16.7031 14.1406 17.3438 13.0469 17.8125C11.9635 18.2812 10.8073 18.5156 9.57812 18.5156H5.09375V23ZM19.8594 7.3125C19.8594 6.38542 20.0365 5.51562 20.3906 4.70312C20.7448 3.89062 21.224 3.18229 21.8281 2.57812C22.4427 1.96354 23.1562 1.47917 23.9688 1.125C24.7812 0.770833 25.651 0.59375 26.5781 0.59375H36.8594V5.07812H26.5781C26.2656 5.07812 25.974 5.13542 25.7031 5.25C25.4323 5.36458 25.1927 5.52604 24.9844 5.73438C24.7865 5.93229 24.6302 6.16667 24.5156 6.4375C24.401 6.70833 24.3438 7 24.3438 7.3125C24.3438 7.625 24.401 7.92188 24.5156 8.20312C24.6302 8.47396 24.7865 8.71354 24.9844 8.92188C25.1927 9.11979 25.4323 9.27604 25.7031 9.39062C25.974 9.50521 26.2656 9.5625 26.5781 9.5625H31.0625C31.9896 9.5625 32.8594 9.73958 33.6719 10.0938C34.4948 10.4375 35.2083 10.9167 35.8125 11.5312C36.4271 12.1354 36.9062 12.849 37.25 13.6719C37.6042 14.4844 37.7812 15.3542 37.7812 16.2812C37.7812 17.2083 37.6042 18.0781 37.25 18.8906C36.9062 19.7031 36.4271 20.4167 35.8125 21.0312C35.2083 21.6354 34.4948 22.1146 33.6719 22.4688C32.8594 22.8229 31.9896 23 31.0625 23H21.1094V18.5156H31.0625C31.375 18.5156 31.6667 18.4583 31.9375 18.3438C32.2083 18.2292 32.4427 18.0729 32.6406 17.875C32.849 17.6667 33.0104 17.4271 33.125 17.1562C33.2396 16.8854 33.2969 16.5938 33.2969 16.2812C33.2969 15.9688 33.2396 15.6771 33.125 15.4062C33.0104 15.1354 32.849 14.901 32.6406 14.7031C32.4427 14.4948 32.2083 14.3333 31.9375 14.2188C31.6667 14.1042 31.375 14.0469 31.0625 14.0469H26.5781C25.651 14.0469 24.7812 13.8698 23.9688 13.5156C23.1562 13.1615 22.4427 12.6823 21.8281 12.0781C21.224 11.4635 20.7448 10.75 20.3906 9.9375C20.0365 9.11458 19.8594 8.23958 19.8594 7.3125ZM62.9688 16.5938C62.9688 17.5208 62.7917 18.3958 62.4375 19.2188C62.0938 20.0312 61.6146 20.7448 61 21.3594C60.3958 21.9635 59.6823 22.4427 58.8594 22.7969C58.0469 23.1406 57.1771 23.3125 56.25 23.3125C55.4167 23.3125 54.6146 23.1667 53.8438 22.875C53.0833 22.5833 52.3958 22.1562 51.7812 21.5938C51.1667 22.1562 50.474 22.5833 49.7031 22.875C48.9323 23.1667 48.1302 23.3125 47.2969 23.3125C46.3698 23.3125 45.4948 23.1406 44.6719 22.7969C43.8594 22.4427 43.1458 21.9635 42.5312 21.3594C41.9271 20.7448 41.4479 20.0312 41.0938 19.2188C40.75 18.3958 40.5781 17.5208 40.5781 16.5938V0.59375H45.0625V16.5938C45.0625 16.9062 45.1198 17.2031 45.2344 17.4844C45.349 17.7552 45.5052 17.9948 45.7031 18.2031C45.9115 18.401 46.151 18.5573 46.4219 18.6719C46.6927 18.7865 46.9844 18.8438 47.2969 18.8438C47.6094 18.8438 47.901 18.7865 48.1719 18.6719C48.4427 18.5573 48.6771 18.401 48.875 18.2031C49.0833 17.9948 49.2448 17.7552 49.3594 17.4844C49.474 17.2031 49.5312 16.9062 49.5312 16.5938V0.59375H54.0156V16.5938C54.0156 16.9062 54.0729 17.2031 54.1875 17.4844C54.3021 17.7552 54.4583 17.9948 54.6562 18.2031C54.8646 18.401 55.1042 18.5573 55.375 18.6719C55.6458 18.7865 55.9375 18.8438 56.25 18.8438C56.5625 18.8438 56.8542 18.7865 57.125 18.6719C57.3958 18.5573 57.6302 18.401 57.8281 18.2031C58.0365 17.9948 58.1979 17.7552 58.3125 17.4844C58.4375 17.2031 58.5 16.9062 58.5 16.5938V0.59375H62.9688V16.5938ZM84.6562 14.0469C84.6562 15.2865 84.4219 16.4531 83.9531 17.5469C83.4844 18.6302 82.8438 19.5781 82.0312 20.3906C81.2188 21.1927 80.2656 21.8281 79.1719 22.2969C78.0885 22.7656 76.9271 23 75.6875 23C74.4479 23 73.2812 22.7656 72.1875 22.2969C71.1042 21.8281 70.1562 21.1927 69.3438 20.3906C68.5417 19.5781 67.9062 18.6302 67.4375 17.5469C66.9688 16.4531 66.7344 15.2865 66.7344 14.0469V0.59375H71.2031V14.0469C71.2031 14.6615 71.3177 15.2396 71.5469 15.7812C71.7865 16.3229 72.1094 16.7969 72.5156 17.2031C72.9219 17.6094 73.3958 17.9323 73.9375 18.1719C74.4896 18.401 75.0729 18.5156 75.6875 18.5156C76.3021 18.5156 76.8802 18.401 77.4219 18.1719C77.974 17.9323 78.4531 17.6094 78.8594 17.2031C79.2656 16.7969 79.5833 16.3229 79.8125 15.7812C80.0521 15.2396 80.1719 14.6615 80.1719 14.0469V0.59375H84.6562V14.0469Z" fill="#F6E8EA"/>
</svg>
