<svg width="32" height="32" viewBox="0 0 32 32" fill="none" xmlns="http://www.w3.org/2000/svg">
<path d="M28 8.44127C28.01 9.30127 27.82 10.1113 27.48 10.8413C27.33 11.1713 27.38 11.5513 27.61 11.8313C29.1 13.6513 30 15.9713 30 18.5013C30 19.2031 29.9312 19.8887 29.7999 20.5519C29.8103 20.4984 29.3839 20.6055 29.3936 20.5519L27.57 21.8068L15.8216 25.7988L4.40001 21.8068L2.41797 20.5742C2.42529 20.6145 2.18475 20.472 2.19227 20.5122C2.06609 19.8614 2 19.1891 2 18.5013C2 15.9713 2.9 13.6513 4.39 11.8313C4.62 11.5513 4.67 11.1613 4.52 10.8313C4.18 10.1113 3.99 9.29127 4 8.43127C4.04 5.48127 6.43 3.07127 9.38 3.00127C12.21 2.94127 14.57 5.02127 14.94 7.73127C14.96 7.88127 15.09 8.00127 15.25 8.00127H16.74C16.9 8.00127 17.03 7.88127 17.05 7.73127C17.43 5.01127 19.79 2.94127 22.62 3.00127C25.57 3.07127 27.96 5.48127 28 8.44127Z" fill="#00D26A"/>
<path d="M13 8.5C13 10.433 11.433 12 9.5 12C7.567 12 6 10.433 6 8.5C6 6.567 7.567 5 9.5 5C11.433 5 13 6.567 13 8.5Z" fill="#FFF478"/>
<path d="M26 8.5C26 10.433 24.433 12 22.5 12C20.567 12 19 10.433 19 8.5C19 6.567 20.567 5 22.5 5C24.433 5 26 6.567 26 8.5Z" fill="#FFF478"/>
<path d="M11 8.5C11 9.88071 9.8807 11 8.5 11C7.11929 11 6 9.88071 6 8.5C6 7.11929 7.11929 6 8.5 6C9.8807 6 11 7.11929 11 8.5Z" fill="#1C1C1C"/>
<path d="M24 8.5C24 9.88071 22.8807 11 21.5 11C20.1193 11 19 9.88071 19 8.5C19 7.11929 20.1193 6 21.5 6C22.8807 6 24 7.11929 24 8.5Z" fill="#1C1C1C"/>
<path d="M16.5 15C16.7761 15 17 14.7762 17 14.5C17 14.2239 16.7761 14 16.5 14C16.2239 14 16 14.2239 16 14.5C16 14.7762 16.2239 15 16.5 15Z" fill="#1C1C1C"/>
<path d="M14 14.5C14 14.7762 13.7761 15 13.5 15C13.2239 15 13 14.7762 13 14.5C13 14.2239 13.2239 14 13.5 14C13.7761 14 14 14.2239 14 14.5Z" fill="#1C1C1C"/>
<path d="M27.57 20.3913C26.39 20.3913 25.3 19.9913 24.42 19.3313C22.11 17.4813 19.18 16.3813 15.99 16.3813C12.77 16.3813 9.82004 17.5013 7.50004 19.3813V19.3713C6.64004 20.0113 5.56004 20.3913 4.40004 20.3913H2.17004C3.06004 25.2913 7.35004 29.0013 12.5 29.0013H19.5C24.65 29.0013 28.94 25.2913 29.83 20.3913H27.57Z" fill="#FCD53F"/>
<path d="M15.0833 26.9874C15.0833 26.9874 11 27.3031 11 24.7772L12 24.7772C12 24.7772 12.1111 25.3948 12.5 25.5C13.6667 26.3511 15.7833 26.0731 16.25 25.8205C16.7167 25.568 16.8333 25.093 16.8333 24.7772L18 24.7772C18 26.2928 16.25 26.9874 15.0833 26.9874Z" fill="#F11717"/>
</svg>
