<svg width="20" height="17" viewBox="0 0 20 17" fill="none" xmlns="http://www.w3.org/2000/svg">
<mask id="mask0_8_67" style="mask-type:luminance" maskUnits="userSpaceOnUse" x="0" y="0" width="20" height="17">
<path d="M0 0H19.6985V17H0V0Z" fill="white"/>
</mask>
<g mask="url(#mask0_8_67)">
<path d="M3.232 8.48637C3.232 5.53936 5.656 3.16534 8.66509 3.16534C9.75174 3.16534 10.7547 3.4655 11.5906 4.01125L13.931 1.74639C12.4822 0.6549 10.6433 0 8.66509 0C3.87282 0 0 3.79295 0 8.48637C0 13.1798 3.87282 16.9728 8.66509 16.9728V13.8074C5.656 13.8074 3.232 11.4334 3.232 8.48637Z" fill="url(#paint0_linear_8_67)"/>
<path d="M14.0982 8.48643H17.3302C17.3302 6.24888 16.4386 4.20234 14.9898 2.67422L12.7051 4.9118C13.5688 5.86687 14.0982 7.12204 14.0982 8.48643Z" fill="url(#paint1_linear_8_67)"/>
<path d="M11.3119 8.75934H6.54755L14.9619 17.0002L19.6984 16.9729L11.3119 8.75934Z" fill="url(#paint2_linear_8_67)"/>
<path opacity="0.6" d="M1.14233 4.25708C-0.947329 10.2058 5.29376 12.6889 5.29376 12.6889C4.62509 12.1977 3.78922 11.0517 3.53846 10.233C3.00909 8.54123 3.17626 7.20415 4.03998 5.73062" fill="url(#paint3_linear_8_67)"/>
</g>
<defs>
<linearGradient id="paint0_linear_8_67" x1="19.5035" y1="17.0269" x2="4.33412" y2="1.31571" gradientUnits="userSpaceOnUse">
<stop stop-color="#892C6C"/>
<stop offset="1" stop-color="#D14671"/>
</linearGradient>
<linearGradient id="paint1_linear_8_67" x1="3.48269" y1="1.00615" x2="19.1939" y2="16.7947" gradientUnits="userSpaceOnUse">
<stop stop-color="#C34170"/>
<stop offset="1" stop-color="#8B2C6C"/>
</linearGradient>
<linearGradient id="paint2_linear_8_67" x1="18.8069" y1="16.6401" x2="2.78618" y2="1.00627" gradientUnits="userSpaceOnUse">
<stop stop-color="#882B6B"/>
<stop offset="1" stop-color="#CF4671"/>
</linearGradient>
<linearGradient id="paint3_linear_8_67" x1="2.07985" y1="11.546" x2="4.26534" y2="5.34976" gradientUnits="userSpaceOnUse">
<stop stop-color="white"/>
<stop offset="0.8598" stop-color="white"/>
<stop offset="1" stop-color="white"/>
</linearGradient>
</defs>
</svg>
