<svg width="28" height="9" viewBox="0 0 28 9" fill="none" xmlns="http://www.w3.org/2000/svg">
<path fill-rule="evenodd" clip-rule="evenodd" d="M28 7.53222V6.21591H24.8149V1.00755H23.4254V7.53222H28Z" fill="#009FEE"/>
<path fill-rule="evenodd" clip-rule="evenodd" d="M21.9059 7.53222V1.00755H20.5164V3.58329H17.9488V1.00755H16.535V7.53222H17.9488V4.91585H20.5164V7.53222H21.9059ZM15.0156 7.53222V1.00755H13.6261V3.58329H11.0423V1.00755H9.65283V7.53222H11.0423V4.91585H13.6261V7.53222H15.0156Z" fill="white"/>
<path fill-rule="evenodd" clip-rule="evenodd" d="M4.0058 0.105629C1.84446 0.105629 0.089379 1.90133 0.089379 4.10331C0.089379 6.30528 1.84446 8.10099 4.0058 8.10099C6.16715 8.10099 7.92223 6.30528 7.92223 4.10331C7.92223 1.90133 6.15903 0.105629 4.0058 0.105629ZM4.0058 8.19037C1.7957 8.19037 0 6.36216 0 4.09518C0 1.82821 1.7957 0 4.0058 0C6.2159 0 8.01161 1.82821 8.01161 4.09518C8.01161 6.36216 6.2159 8.19037 4.0058 8.19037Z" fill="white"/>
<path fill-rule="evenodd" clip-rule="evenodd" d="M3.77812 5.9559L3.54248 6.03716V6.05341C3.58311 6.08591 3.63186 6.13466 3.74561 6.11841C3.74561 6.10216 3.74561 6.10216 3.76187 6.10216L3.85124 6.08591C3.83499 6.03716 3.81874 5.9884 3.77812 5.9559Z" fill="white"/>
<path fill-rule="evenodd" clip-rule="evenodd" d="M3.41253 6.00465C3.48566 5.87464 3.67254 5.81776 3.67254 5.81776L3.61567 5.76088C3.61567 5.76088 3.46941 5.87464 3.26628 5.76088C3.07939 5.64713 2.77063 5.34649 2.77063 5.34649L2.65687 4.00581C2.65687 3.73767 2.71375 3.59141 2.93314 3.42078C3.12002 3.29078 3.53441 3.00639 3.53441 3.00639L3.51816 2.94951C3.29878 3.06326 2.99001 3.21765 2.86001 3.30702C2.67312 3.46141 2.55124 3.64829 2.52687 3.93268C2.51062 4.20081 2.6 4.97272 2.61625 5.20024C2.65687 5.46837 2.68938 5.50087 2.87626 5.63088L3.41253 6.00465Z" fill="white"/>
<path fill-rule="evenodd" clip-rule="evenodd" d="M5.06199 5.64711L5.00512 5.70399L5.29763 6.24839C4.76948 6.23214 4.24946 6.4759 3.99757 6.69528C3.68881 6.43527 3.12003 6.19151 2.51063 6.24839L2.3075 6.54903C2.99003 6.37839 3.57505 6.53277 3.99757 6.77653C4.40384 6.53277 4.98886 6.38652 5.66327 6.54903L5.46014 6.24839L5.06199 5.64711Z" fill="white"/>
<path fill-rule="evenodd" clip-rule="evenodd" d="M3.48578 1.96632C3.54266 1.93382 3.66454 1.8607 3.80267 1.83632C3.96518 1.82007 4.16018 1.83632 4.29832 1.90945C4.38769 1.96633 4.44457 2.01508 4.46082 2.03945L4.56645 1.90945C4.56645 1.90945 4.26581 1.67381 3.95705 1.67381C3.64016 1.67381 3.42078 1.90945 3.42078 1.90945L3.48578 1.96632Z" fill="white"/>
<path fill-rule="evenodd" clip-rule="evenodd" d="M5.44397 3.93267C5.42772 3.64828 5.31397 3.4614 5.11083 3.30702C4.92395 3.17701 4.46893 2.93325 4.29017 2.83575C4.37955 2.62449 4.43643 2.32385 4.42018 2.03946C4.3308 1.96633 4.08704 1.90945 3.94078 1.90945C3.8514 1.90945 3.7539 1.9257 3.68077 1.96633C3.86765 1.96633 3.94078 2.02321 3.94078 2.13696V2.76262C3.94078 2.87637 3.90015 2.917 3.8514 2.917C3.77827 2.917 3.70514 2.87637 3.64827 2.81949C3.68889 2.917 3.83515 3.04701 3.99766 3.04701V5.89088L3.98141 5.87463L3.39638 5.04584V4.20081C3.39638 3.88392 3.12012 3.80266 3.12012 3.80266L3.17699 5.14335L3.89203 5.89901C3.9489 5.97214 3.98141 6.01276 3.98141 6.08589L3.99766 6.28902C3.99766 6.28902 3.99766 6.28902 4.01391 6.28902C4.03016 6.27277 4.07078 6.2484 4.07078 6.2159V6.10214C4.07078 6.02901 4.05453 5.98839 4.01391 5.93151L4.61518 5.17585L4.68831 3.80266C4.68831 3.80266 4.96457 3.87579 4.96457 4.20081L4.85082 5.2571L4.32267 5.84213L4.3958 5.97214C4.3958 5.97214 4.89145 5.6715 5.09458 5.51711C5.28146 5.38711 5.29771 5.31398 5.33022 5.08647C5.37084 4.87521 5.46022 4.19268 5.44397 3.93267Z" fill="white"/>
<path fill-rule="evenodd" clip-rule="evenodd" d="M4.81822 7.47533C4.81822 7.51596 4.80197 7.54846 4.74509 7.54846C4.68821 7.56471 4.65571 7.54846 4.65571 7.50783C4.63946 7.4672 4.67196 7.4347 4.72884 7.4347C4.76947 7.41845 4.80197 7.4347 4.81822 7.47533ZM4.76947 7.26407C4.76947 7.3047 4.75322 7.3372 4.71259 7.3372C4.65571 7.35345 4.63946 7.3372 4.62321 7.29657C4.62321 7.25594 4.63946 7.22344 4.68009 7.22344C4.72884 7.21532 4.74509 7.23157 4.76947 7.26407ZM4.91572 7.45908C4.91572 7.4022 4.8751 7.38595 4.82634 7.36158C4.86697 7.32095 4.88322 7.28845 4.86697 7.23157C4.85072 7.15844 4.77759 7.11781 4.66384 7.13406C4.57446 7.15031 4.51758 7.23157 4.53383 7.3047C4.53383 7.36157 4.57446 7.37783 4.60696 7.4022C4.56633 7.4347 4.55008 7.47533 4.55008 7.54846C4.56633 7.62159 4.66384 7.66221 4.76947 7.64596C4.8751 7.62159 4.94823 7.54846 4.91572 7.45908ZM4.23319 7.37782C4.23319 7.41845 4.19257 7.45095 4.16006 7.45095C4.10319 7.45095 4.07069 7.4347 4.07069 7.37782C4.05444 7.3372 4.08694 7.3047 4.14381 7.3047C4.20069 7.3047 4.23319 7.32095 4.23319 7.37782ZM4.34695 7.4347C4.34695 7.3372 4.30632 7.28844 4.27382 7.24782C4.23319 7.20719 4.20069 7.20719 4.12756 7.20719C4.01381 7.20719 3.94068 7.28032 3.96506 7.39408C3.96506 7.49158 4.03818 7.54033 4.15194 7.54033C4.19257 7.54033 4.22507 7.52408 4.24132 7.4997C4.24132 7.55658 4.22507 7.61346 4.15194 7.61346C4.11131 7.61346 4.07881 7.61346 4.03818 7.57283L3.98131 7.67034C4.03818 7.71096 4.09506 7.72722 4.14381 7.72722C4.29007 7.71909 4.3632 7.60534 4.34695 7.4347ZM3.66442 7.57283C3.64817 7.58908 3.62379 7.62971 3.57504 7.61346C3.51816 7.61346 3.48566 7.57283 3.48566 7.55658C3.50191 7.49971 3.54254 7.48345 3.57504 7.4997C3.63192 7.49158 3.66442 7.51595 3.66442 7.57283ZM3.66442 7.34532C3.66442 7.38595 3.62379 7.4022 3.59129 7.4022C3.55066 7.4022 3.51816 7.36157 3.51816 7.32907C3.53441 7.31282 3.55879 7.27219 3.60754 7.28844C3.64817 7.28844 3.66442 7.32095 3.66442 7.34532ZM3.76192 7.57283C3.77817 7.51595 3.74567 7.47533 3.70504 7.45908C3.74567 7.44283 3.76192 7.4022 3.77817 7.34532C3.77817 7.2722 3.7213 7.19094 3.61567 7.19094C3.50191 7.17469 3.42878 7.23157 3.42878 7.3047C3.42878 7.36157 3.44503 7.4022 3.48566 7.41845C3.42878 7.4347 3.39628 7.47533 3.39628 7.53221C3.38003 7.62971 3.45316 7.70284 3.55879 7.70284C3.66442 7.71909 3.76192 7.66221 3.76192 7.57283ZM3.03064 7.10156V7.19907H3.12002L3.03064 7.59721L3.12002 7.61346L3.25002 7.12594L3.1769 7.10969H3.03064V7.10156Z" fill="white"/>
<path fill-rule="evenodd" clip-rule="evenodd" d="M6.39451 6.12654L6.55702 6.2403L6.68702 6.06966L6.6139 6.01279L6.54077 6.11029L6.48389 6.06966C6.48389 6.02904 6.50014 5.99654 6.52452 5.95591C6.58139 5.88278 6.67077 5.88278 6.7439 5.91528C6.80078 5.97216 6.83328 6.06154 6.78453 6.14279C6.7439 6.1753 6.7114 6.19967 6.67077 6.21592L6.68702 6.31342C6.76015 6.29717 6.81703 6.2728 6.84953 6.19967C6.93891 6.06966 6.90641 5.91528 6.79265 5.8259C6.6789 5.75277 6.51639 5.76903 6.44326 5.89903C6.39451 5.98029 6.37826 6.05341 6.39451 6.12654ZM6.67077 5.54964L7.10954 5.75278L7.16642 5.65527L6.72765 5.42776L6.67077 5.54964ZM6.80078 5.27338L6.89016 5.28963L6.97954 5.02962L7.18267 5.38713L7.27205 5.42776L7.38581 5.03774L7.31268 4.99712L7.2233 5.25713L7.00391 4.89961L6.93079 4.86711L6.80078 5.27338ZM7.27205 4.71273C7.23142 4.69648 7.19892 4.65585 7.21517 4.61522V4.51772L7.37768 4.53397L7.36143 4.63148C7.36956 4.6721 7.32893 4.71273 7.27205 4.71273ZM7.2558 4.81836C7.36955 4.81836 7.44268 4.76148 7.45893 4.64773L7.49956 4.44459L7.00391 4.37146L6.98766 4.48522L7.13392 4.50147V4.59898C7.10954 4.71273 7.14204 4.80211 7.2558 4.81836ZM6.99579 4.16833H7.49144V4.05457H6.99579V4.16833ZM6.99579 3.86769L7.08517 3.85144L7.04454 3.57518H7.1583L7.17455 3.80269L7.2883 3.78644L7.24768 3.55893L7.33705 3.54268L7.37768 3.80269L7.46706 3.78644L7.42643 3.41267L6.93079 3.4858L6.99579 3.86769ZM6.90641 3.30704L6.99579 3.29079L6.92266 3.04703L7.2883 2.91702L7.24768 2.82764L6.79265 2.9739L6.90641 3.30704ZM6.55702 2.51888L6.6464 2.462L6.48389 2.23449L6.57327 2.17762L6.70328 2.3645L6.79265 2.30762L6.6464 2.12074L6.73578 2.06386L6.88203 2.29137L6.95516 2.23449L6.75203 1.91761L6.34576 2.20199L6.55702 2.51888ZM6.24826 2.07199L6.30513 2.01511L6.14263 1.82823L6.41889 1.54384L6.34576 1.47071L5.99637 1.82823L6.24826 2.07199ZM5.95574 1.51134L6.11825 1.28383L6.02887 1.22695L5.86636 1.45446C5.82574 1.52759 5.77698 1.52759 5.72011 1.49509C5.66323 1.45446 5.66323 1.39758 5.70386 1.32445L5.86636 1.09694L5.77698 1.04006L5.61448 1.26758C5.54135 1.39758 5.5576 1.51134 5.67135 1.58447C5.76886 1.65759 5.88261 1.64134 5.95574 1.51134ZM5.31384 1.35695L5.51697 0.910059L5.42759 0.853182L5.33821 1.04006L5.15133 0.966937L5.24071 0.780055L5.12696 0.739428L4.94007 1.18632L5.02945 1.2432L5.10258 1.05632L5.28946 1.12944L5.21633 1.31633L5.31384 1.35695ZM4.78569 1.08069L4.72881 0.983189C4.67194 1.01569 4.63943 1.01569 4.58256 1.01569C4.50943 0.999439 4.45255 0.926309 4.4688 0.828805C4.48505 0.755677 4.55818 0.68255 4.65568 0.698801C4.69631 0.715052 4.72881 0.739426 4.76944 0.796304L4.84257 0.723176C4.80194 0.666299 4.76944 0.633798 4.68006 0.609422C4.51755 0.568795 4.4038 0.666299 4.3713 0.812556C4.35505 0.958812 4.42817 1.09694 4.57443 1.11319C4.65568 1.13757 4.72881 1.11319 4.78569 1.08069ZM4.17629 0.910059C4.17629 0.812554 4.11941 0.780054 4.03003 0.763803C3.94065 0.747552 3.91628 0.723177 3.91628 0.690675C3.91628 0.674425 3.93253 0.650048 3.97315 0.650048C4.03003 0.650048 4.06253 0.666299 4.10316 0.690675L4.16004 0.617547C4.11941 0.576921 4.04628 0.560669 3.97315 0.560669C3.88378 0.560669 3.81065 0.617545 3.81065 0.706924C3.81065 0.804429 3.86752 0.836932 3.97315 0.853182C4.04628 0.869433 4.06253 0.893808 4.06253 0.910059C4.06253 0.950685 4.04628 0.966937 3.9894 0.966937C3.93253 0.966937 3.90003 0.950685 3.84315 0.910059L3.78627 0.983189C3.84315 1.04007 3.91628 1.05632 3.9894 1.05632C4.10316 1.05632 4.17629 1.00756 4.17629 0.910059ZM3.63189 1.08069L3.54251 0.576921L3.42875 0.59317L3.46938 0.796304L3.26625 0.836931L3.22562 0.633797L3.13624 0.650048L3.20937 1.15382L3.32312 1.13757L3.2825 0.934436L3.48563 0.893809L3.52626 1.09694L3.63189 1.08069ZM3.00624 1.13757L2.91686 1.09694C2.90061 1.13757 2.87623 1.17007 2.82748 1.19445C2.75435 1.23507 2.66497 1.19445 2.64059 1.09694C2.59997 1.02382 2.62434 0.926309 2.71372 0.910059C2.75435 0.893808 2.78685 0.893808 2.84373 0.910059L2.88436 0.796304C2.82748 0.780053 2.75435 0.780054 2.68122 0.812556C2.53496 0.869433 2.47809 1.01569 2.53496 1.1457C2.59184 1.2757 2.7381 1.33258 2.8681 1.2757C2.95748 1.25132 2.98999 1.2107 3.00624 1.13757ZM2.2912 1.30008C2.33183 1.35695 2.33183 1.44633 2.25058 1.50321C2.17745 1.56009 2.08807 1.51946 2.03119 1.44633C1.99057 1.38946 1.99057 1.30008 2.07182 1.2432C2.14495 1.19445 2.24245 1.22695 2.2912 1.30008ZM2.38871 1.22695C2.31558 1.11319 2.15307 1.08069 2.02307 1.15382C1.90931 1.25132 1.87681 1.41383 1.94994 1.52759C2.03932 1.64134 2.18557 1.67384 2.31558 1.60071C2.43746 1.51134 2.46184 1.3407 2.38871 1.22695ZM1.98244 1.84448L1.63305 1.48696L1.55992 1.56009L1.68993 1.70635L1.54367 1.83635L1.41366 1.70635L1.34054 1.77947L1.68993 2.13699L1.76306 2.06386L1.6168 1.90948L1.76306 1.76322L1.90931 1.90948L1.98244 1.84448ZM1.45429 2.20199C1.38116 2.16137 1.32429 2.18574 1.25116 2.25887C1.17803 2.31575 1.16178 2.332 1.1374 2.31575C1.12115 2.2995 1.09678 2.28325 1.1374 2.24262C1.15365 2.20199 1.19428 2.16949 1.25116 2.14511L1.21053 2.04761C1.1374 2.06386 1.08052 2.10449 1.04802 2.17762C0.991146 2.25074 1.0074 2.34825 1.08865 2.40513C1.16178 2.462 1.23491 2.42138 1.30804 2.34825C1.36491 2.29137 1.38116 2.29137 1.42179 2.29137V2.30762C1.43804 2.30762 1.43804 2.34825 1.42179 2.38075C1.38116 2.43763 1.33241 2.45388 1.27553 2.47826L1.31616 2.57576C1.38929 2.55951 1.46242 2.51888 1.50304 2.44575C1.54367 2.34825 1.54367 2.25887 1.45429 2.20199ZM1.30804 2.74639L1.21866 2.70576L1.12928 2.93328L0.763636 2.78702L0.723009 2.88452L1.16178 3.08766L1.30804 2.74639ZM1.1049 3.26641L1.01552 3.25016L0.942394 3.51017L0.853015 3.49393L0.909892 3.25016L0.820513 3.23391L0.763636 3.46142L0.674257 3.44517L0.731134 3.18516L0.641755 3.16891L0.552376 3.54268L1.03177 3.65643L1.1049 3.26641ZM0.75551 3.90019C0.828639 3.90019 0.901767 3.95707 0.885516 4.04645V4.14395L0.593003 4.1277V4.0302C0.593003 3.94082 0.666132 3.88394 0.75551 3.90019ZM0.75551 3.77019C0.609254 3.77019 0.495499 3.88394 0.495499 4.0302L0.479248 4.21708L0.974895 4.25771L0.991146 4.05457C0.991146 3.90019 0.885516 3.79456 0.75551 3.77019ZM0.991146 4.46897L0.51175 4.5421L0.528 4.65585L0.820513 4.59898L0.560502 4.88336L0.576752 4.99712L1.05615 4.89961L1.0399 4.78586L0.731134 4.84274L1.0074 4.56647L0.991146 4.46897ZM0.991146 5.32213L1.04802 5.43589H0.86114L0.991146 5.32213ZM1.12115 5.04587L0.73926 5.43589L0.779887 5.53339L1.30804 5.54964L1.26741 5.43589H1.15365L1.06427 5.249L1.15365 5.1515L1.12115 5.04587ZM1.39741 5.67965L0.974895 5.96404L1.04802 6.06154L1.19428 5.94778L1.32429 6.11842L1.16178 6.23217L1.21866 6.32968L1.62492 6.04529L1.56805 5.94778L1.40554 6.06154L1.29178 5.89091L1.45429 5.77715L1.39741 5.67965Z" fill="white"/>
</svg>
