<?xml version="1.0" encoding="UTF-8"?>
<svg xmlns="http://www.w3.org/2000/svg" xmlns:xlink="http://www.w3.org/1999/xlink" width="300px" height="211px" viewBox="0 0 299 211" version="1.1">
<g id="surface1">
<path style=" stroke:none;fill-rule:evenodd;fill:rgb(74.901961%,71.764706%,74.117647%);fill-opacity:1;" d="M 260.574219 43.660156 C 259.394531 43.472656 257.484375 44.058594 256.800781 43.375 C 257.96875 43.574219 259.890625 42.976562 260.574219 43.660156 Z M 260.574219 43.660156 "/>
<path style=" stroke:none;fill-rule:evenodd;fill:rgb(74.901961%,71.764706%,74.117647%);fill-opacity:1;" d="M 249.554688 43.375 C 248.957031 44.058594 247.132812 43.488281 246.050781 43.660156 C 246.664062 42.976562 248.484375 43.574219 249.554688 43.375 Z M 249.554688 43.375 "/>
<path style=" stroke:none;fill-rule:evenodd;fill:rgb(18.039216%,19.215686%,57.254902%);fill-opacity:1;" d="M 219.976562 174.554688 L 223.46875 174.554688 C 199.613281 184.355469 173.171875 191.589844 141.089844 193.128906 L 130.652344 193.128906 C 102.386719 191.589844 82.75 184.097656 72.636719 165.566406 C 69.347656 159.53125 68.292969 152.222656 65.390625 144.375 C 60.503906 131.191406 51.234375 119.964844 41.308594 111.273438 C 32.296875 103.386719 22.46875 97.308594 9.425781 93.285156 C 7.832031 92.785156 5.738281 92.710938 4.5 91.242188 C 5.511719 91.113281 6.378906 90.828125 7.675781 90.957031 C 8.855469 90.773438 10.75 91.34375 11.433594 90.671875 L 18.414062 90.671875 C 19.011719 91.34375 20.820312 90.773438 21.902344 90.957031 C 41.054688 92.171875 54.894531 97.519531 66.257812 106.054688 C 77.933594 114.800781 83.671875 128.082031 91.777344 140.023438 C 108.210938 164.167969 137.644531 172.484375 176.460938 174.269531 C 176.859375 174.9375 178.46875 174.382812 179.367188 174.554688 L 183.125 174.554688 C 184.378906 175.253906 186.898438 174.652344 188.664062 174.867188 L 212.429688 174.867188 C 214.867188 174.652344 218.042969 175.253906 219.976562 174.554688 Z M 219.976562 174.554688 "/>
<path style=" stroke:none;fill-rule:evenodd;fill:rgb(75.686275%,15.686275%,18.039216%);fill-opacity:1;" d="M 191.839844 96.480469 C 210.222656 97.136719 224.507812 101.902344 238.546875 106.921875 C 192.679688 109.675781 145.917969 111.5625 114.402344 128.710938 C 116.027344 126.199219 118.960938 124.914062 121.367188 123.1875 C 138.496094 111.046875 156.027344 97.535156 184.308594 96.480469 Z M 191.839844 96.480469 "/>
<path style=" stroke:none;fill-rule:evenodd;fill:rgb(74.901961%,71.764706%,74.117647%);fill-opacity:1;" d="M 219.976562 174.539062 C 218.042969 175.265625 214.851562 174.652344 212.417969 174.867188 C 214.351562 174.140625 217.542969 174.753906 219.976562 174.539062 Z M 219.976562 174.539062 "/>
<path style=" stroke:none;fill-rule:evenodd;fill:rgb(74.901961%,71.764706%,74.117647%);fill-opacity:1;" d="M 191.839844 96.480469 L 184.292969 96.480469 C 186.128906 95.996094 190.015625 95.996094 191.839844 96.480469 Z M 191.839844 96.480469 "/>
<path style=" stroke:none;fill-rule:evenodd;fill:rgb(74.901961%,71.764706%,74.117647%);fill-opacity:1;" d="M 188.664062 174.867188 C 186.898438 174.683594 184.378906 175.265625 183.125 174.539062 C 184.875 174.753906 187.382812 174.140625 188.664062 174.867188 Z M 188.664062 174.867188 "/>
<path style=" stroke:none;fill-rule:evenodd;fill:rgb(74.901961%,71.764706%,74.117647%);fill-opacity:1;" d="M 179.378906 174.566406 C 178.46875 174.382812 176.859375 174.96875 176.460938 174.269531 C 177.328125 174.453125 178.953125 173.882812 179.378906 174.566406 Z M 179.378906 174.566406 "/>
<path style=" stroke:none;fill-rule:evenodd;fill:rgb(74.901961%,71.764706%,74.117647%);fill-opacity:1;" d="M 130.652344 193.117188 L 141.101562 193.117188 C 138.296875 193.644531 133.441406 193.644531 130.652344 193.117188 Z M 130.652344 193.117188 "/>
<path style=" stroke:none;fill-rule:evenodd;fill:rgb(0%,40.784314%,21.568627%);fill-opacity:1;" d="M 90.195312 119.078125 C 90.152344 119.023438 90.125 118.9375 90.082031 118.835938 C 83.445312 108.976562 77.550781 96.109375 78.191406 79.957031 C 78.816406 64.390625 85.894531 52.976562 93.269531 44.542969 C 94.953125 43.117188 96.488281 41.578125 97.914062 39.894531 C 108.367188 30.535156 121.367188 23.640625 135.636719 18.105469 C 136.0625 19.460938 131.777344 22.03125 130.722656 23.914062 C 129.140625 25.238281 127.6875 26.695312 126.363281 28.292969 C 106.230469 49.667969 88.785156 73.707031 90.378906 116.796875 C 90.980469 117.054688 90.75 120.265625 90.195312 119.078125 Z M 90.195312 119.078125 "/>
<path style=" stroke:none;fill-rule:evenodd;fill:rgb(98.431373%,69.019608%,23.137255%);fill-opacity:1;" d="M 98.167969 136.53125 C 118.574219 76.648438 168.757812 46.570312 246.066406 43.644531 C 247.148438 43.472656 248.957031 44.03125 249.554688 43.359375 L 256.816406 43.359375 C 257.484375 44.03125 259.394531 43.460938 260.574219 43.644531 C 272.023438 43.703125 282.320312 44.914062 292.773438 45.972656 C 212.445312 60.511719 141.886719 86.347656 98.167969 136.53125 Z M 98.167969 136.53125 "/>
<path style=" stroke:none;fill-rule:evenodd;fill:rgb(74.901961%,71.764706%,74.117647%);fill-opacity:1;" d="M 130.664062 23.914062 C 129.339844 25.496094 127.875 26.953125 126.292969 28.292969 C 127.648438 26.710938 129.085938 25.238281 130.664062 23.914062 Z M 130.664062 23.914062 "/>
<path style=" stroke:none;fill-rule:evenodd;fill:rgb(74.901961%,71.764706%,74.117647%);fill-opacity:1;" d="M 97.886719 39.878906 C 96.460938 41.546875 94.921875 43.089844 93.230469 44.542969 C 94.667969 42.847656 96.234375 41.304688 97.886719 39.878906 Z M 97.886719 39.878906 "/>
<path style=" stroke:none;fill-rule:evenodd;fill:rgb(18.039216%,19.215686%,57.254902%);fill-opacity:1;" d="M 79.941406 107.824219 C 78.804688 107.109375 77.808594 106.253906 76.753906 105.496094 C 75.570312 104.539062 74.503906 103.484375 73.550781 102.300781 C 61.859375 91.515625 52.21875 57.597656 71.511719 47.996094 C 71.625 51.109375 70.628906 55.617188 70.941406 59.898438 C 70.472656 60.796875 70.472656 63.664062 70.941406 64.546875 C 71.058594 81.855469 75.300781 95.050781 79.941406 107.824219 Z M 79.941406 107.824219 "/>
<path style=" stroke:none;fill-rule:evenodd;fill:rgb(74.901961%,71.764706%,74.117647%);fill-opacity:1;" d="M 70.914062 59.898438 L 70.914062 64.5625 C 70.417969 63.691406 70.417969 60.796875 70.914062 59.898438 Z M 70.914062 59.898438 "/>
<path style=" stroke:none;fill-rule:evenodd;fill:rgb(74.901961%,71.764706%,74.117647%);fill-opacity:1;" d="M 21.914062 90.972656 C 20.820312 90.757812 19.011719 91.371094 18.414062 90.671875 C 19.480469 90.859375 21.289062 90.273438 21.914062 90.972656 Z M 21.914062 90.972656 "/>
<path style=" stroke:none;fill-rule:evenodd;fill:rgb(74.901961%,71.764706%,74.117647%);fill-opacity:1;" d="M 7.675781 90.972656 C 8.359375 90.273438 10.296875 90.859375 11.464844 90.671875 C 10.78125 91.371094 8.871094 90.757812 7.675781 90.972656 Z M 7.675781 90.972656 "/>
</g>
</svg>
